<?xml version="1.0" encoding="utf-8"?>
<!-- Generator: Adobe Illustrator 15.0.0, SVG Export Plug-In . SVG Version: 6.00 Build 0)  -->
<!DOCTYPE svg PUBLIC "-//W3C//DTD SVG 1.1//EN" "http://www.w3.org/Graphics/SVG/1.1/DTD/svg11.dtd">
<svg version="1.1" id="Layer_1" xmlns="http://www.w3.org/2000/svg" xmlns:xlink="http://www.w3.org/1999/xlink" x="0px" y="0px"
	 width="25px" height="37.5px" viewBox="0 0 25 37.5" enable-background="new 0 0 25 37.5" xml:space="preserve">
<g>
	<path fill="#1D3765" d="M21.338,3.662C18.897,1.22,15.95,0,12.5,0S6.103,1.22,3.662,3.662C1.221,6.104,0,9.05,0,12.5
		c0,1.774,0.27,3.23,0.806,4.37l8.911,18.897c0.244,0.537,0.622,0.96,1.136,1.269c0.512,0.309,1.062,0.464,1.647,0.464
		c0.587,0,1.136-0.155,1.649-0.464c0.512-0.309,0.898-0.731,1.158-1.269l8.886-18.897C24.732,15.73,25,14.274,25,12.5
		C25,9.05,23.779,6.104,21.338,3.662L21.338,3.662z M16.919,16.919c-1.221,1.22-2.694,1.832-4.419,1.832s-3.198-0.612-4.419-1.832
		c-1.222-1.221-1.832-2.694-1.832-4.419c0-1.726,0.61-3.198,1.832-4.419c1.221-1.22,2.694-1.83,4.419-1.83s3.198,0.61,4.419,1.83
		c1.22,1.221,1.832,2.693,1.832,4.419C18.751,14.225,18.139,15.698,16.919,16.919L16.919,16.919z M16.919,16.919"/>
</g>
</svg>
